<svg id="Layer_1" data-name="Layer 1" xmlns="http://www.w3.org/2000/svg" viewBox="0 0 360 196"><defs><style>.cls-1{fill:#f80032;}.cls-2{fill:#fff;}</style></defs><rect class="cls-1" x="-8.92" y="-4.39" width="372.93" height="206.63"/><path class="cls-2" d="M40.23,98.42a2.09,2.09,0,0,1-.75.42,8.05,8.05,0,0,1-1,.25c-.34.06-.7.12-1.08.16s-.75.1-1.13.17a10.12,10.12,0,0,0-1,.27,3.22,3.22,0,0,0-.89.44,2.16,2.16,0,0,0-.62.72,2.24,2.24,0,0,0-.23,1.1,2.16,2.16,0,0,0,.23,1.06,1.8,1.8,0,0,0,.63.68,2.53,2.53,0,0,0,.93.35,5.7,5.7,0,0,0,1.1.1,4.18,4.18,0,0,0,2.16-.46,3.11,3.11,0,0,0,1.13-1.12,3.36,3.36,0,0,0,.45-1.31,8.32,8.32,0,0,0,.09-1.07ZM29.32,94.93a5.39,5.39,0,0,1,.83-2.76A5.69,5.69,0,0,1,32,90.41a8,8,0,0,1,2.54-1,14.42,14.42,0,0,1,2.85-.28,19.71,19.71,0,0,1,2.63.18,8.11,8.11,0,0,1,2.42.71,4.91,4.91,0,0,1,1.8,1.48,4.2,4.2,0,0,1,.7,2.52V103a17.72,17.72,0,0,0,.13,2.23,4,4,0,0,0,.47,1.6H40.76a7.62,7.62,0,0,1-.22-.82c0-.28-.09-.56-.12-.85a6.09,6.09,0,0,1-2.66,1.63,10.68,10.68,0,0,1-3.12.47,8.47,8.47,0,0,1-2.3-.3,5.25,5.25,0,0,1-1.86-.93,4.4,4.4,0,0,1-1.25-1.6,5.38,5.38,0,0,1-.44-2.29,5,5,0,0,1,.51-2.41,4.28,4.28,0,0,1,1.33-1.52,6.09,6.09,0,0,1,1.86-.85c.7-.18,1.41-.33,2.12-.44s1.4-.2,2.09-.27a13.44,13.44,0,0,0,1.83-.3,3.21,3.21,0,0,0,1.26-.58,1.3,1.3,0,0,0,.44-1.12A2.56,2.56,0,0,0,40,93.45a1.88,1.88,0,0,0-.67-.7,2.66,2.66,0,0,0-1-.33,7.38,7.38,0,0,0-1.18-.08,3.64,3.64,0,0,0-2.2.59,2.7,2.7,0,0,0-.93,2Z"/><path class="cls-2" d="M52.72,89.64V92h.07A6.65,6.65,0,0,1,55,89.91a6.07,6.07,0,0,1,3-.73,7,7,0,0,1,3,.63,4.16,4.16,0,0,1,2,2.23,7.25,7.25,0,0,1,2.08-2,5.58,5.58,0,0,1,3.11-.86,9.27,9.27,0,0,1,2.53.33,5.15,5.15,0,0,1,2,1.06,4.84,4.84,0,0,1,1.3,1.92,7.72,7.72,0,0,1,.46,2.84v11.51H69.81V97.09c0-.57,0-1.12-.06-1.63a3.57,3.57,0,0,0-.37-1.33,2.3,2.3,0,0,0-.88-.9,3.23,3.23,0,0,0-1.58-.33,3,3,0,0,0-1.61.38,2.81,2.81,0,0,0-1,1,3.92,3.92,0,0,0-.46,1.4,10.41,10.41,0,0,0-.12,1.58v9.58H59V97.19c0-.51,0-1,0-1.51a4.08,4.08,0,0,0-.28-1.38,2.12,2.12,0,0,0-.83-1,3.19,3.19,0,0,0-1.71-.38,3.49,3.49,0,0,0-.88.15,2.94,2.94,0,0,0-1.07.57,3.21,3.21,0,0,0-.88,1.19,4.94,4.94,0,0,0-.37,2v10H48.26V89.64Z"/><path class="cls-2" d="M88.17,93.67a3.31,3.31,0,0,0-2.58-.93,4,4,0,0,0-1.87.38,3.49,3.49,0,0,0-1.2.95,3.34,3.34,0,0,0-.63,1.19,4.86,4.86,0,0,0-.22,1.13h7.68a5.4,5.4,0,0,0-1.18-2.72m-5.34,9a4.21,4.21,0,0,0,3.06,1,4.28,4.28,0,0,0,2.47-.71,3,3,0,0,0,1.26-1.52h4.16a7.94,7.94,0,0,1-3.06,4.43,9.08,9.08,0,0,1-5,1.33,9.9,9.9,0,0,1-3.66-.65,7.5,7.5,0,0,1-2.76-1.85,8.28,8.28,0,0,1-1.75-2.86A10.39,10.39,0,0,1,77,98.26a10.09,10.09,0,0,1,.63-3.6,8.42,8.42,0,0,1,1.8-2.87,8.32,8.32,0,0,1,2.77-1.91,8.86,8.86,0,0,1,3.58-.7,8.21,8.21,0,0,1,3.82.84,7.71,7.71,0,0,1,2.68,2.28,9.37,9.37,0,0,1,1.51,3.26,12.45,12.45,0,0,1,.34,3.83H81.67a4.76,4.76,0,0,0,1.16,3.32"/><path class="cls-2" d="M101,89.64v3.19H101a5.59,5.59,0,0,1,.9-1.47,5.73,5.73,0,0,1,1.29-1.17,6.48,6.48,0,0,1,1.57-.75,5.84,5.84,0,0,1,1.73-.26,3.7,3.7,0,0,1,1,.16v4.39c-.23,0-.49-.08-.8-.11a7,7,0,0,0-.9-.05,5,5,0,0,0-2.19.43,3.76,3.76,0,0,0-1.45,1.18,4.58,4.58,0,0,0-.78,1.75,9.16,9.16,0,0,0-.24,2.16v7.75H96.48V89.64Z"/><rect class="cls-2" x="109.34" y="89.64" width="4.72" height="17.19"/><path class="cls-2" d="M125.37,92.74a3.33,3.33,0,0,0-1.89.51,4.08,4.08,0,0,0-1.25,1.33,5.65,5.65,0,0,0-.68,1.8,9.91,9.91,0,0,0-.2,1.94,9.59,9.59,0,0,0,.2,1.9,5.75,5.75,0,0,0,.65,1.74,3.71,3.71,0,0,0,1.21,1.28,3.27,3.27,0,0,0,1.86.5,3.44,3.44,0,0,0,2.62-.95,4.47,4.47,0,0,0,1.14-2.54h4.56a7.81,7.81,0,0,1-2.66,5.22,8.57,8.57,0,0,1-5.62,1.8,9.41,9.41,0,0,1-3.54-.65,7.94,7.94,0,0,1-2.75-1.81,8.29,8.29,0,0,1-1.76-2.78,9.65,9.65,0,0,1-.63-3.54,11.41,11.41,0,0,1,.58-3.71,8.43,8.43,0,0,1,1.71-3,7.88,7.88,0,0,1,2.76-1.94,9.33,9.33,0,0,1,3.73-.7,10.59,10.59,0,0,1,2.94.4,7.8,7.8,0,0,1,2.53,1.21,6.3,6.3,0,0,1,2.61,4.9h-4.62a3.17,3.17,0,0,0-3.5-3"/><path class="cls-2" d="M146.6,98.42a2.09,2.09,0,0,1-.75.42,8.39,8.39,0,0,1-1,.25c-.35.06-.71.12-1.08.16s-.76.1-1.13.17a9,9,0,0,0-1.05.27,3.43,3.43,0,0,0-.9.44,2.13,2.13,0,0,0-.61.72,2.24,2.24,0,0,0-.24,1.1,2.16,2.16,0,0,0,.24,1.06,1.66,1.66,0,0,0,.63.68,2.4,2.4,0,0,0,.93.35,5.63,5.63,0,0,0,1.1.1,4.18,4.18,0,0,0,2.16-.46,3.11,3.11,0,0,0,1.13-1.12,3.72,3.72,0,0,0,.45-1.31,10.18,10.18,0,0,0,.08-1.07Zm-10.91-3.49a5.27,5.27,0,0,1,2.7-4.52,8,8,0,0,1,2.54-1,14.32,14.32,0,0,1,2.84-.28,19.59,19.59,0,0,1,2.63.18,8.09,8.09,0,0,1,2.43.71,4.91,4.91,0,0,1,1.8,1.48,4.2,4.2,0,0,1,.69,2.52V103a17.67,17.67,0,0,0,.14,2.23,4.13,4.13,0,0,0,.46,1.6h-4.79a5.8,5.8,0,0,1-.21-.82,6,6,0,0,1-.12-.85,6.09,6.09,0,0,1-2.66,1.63,10.69,10.69,0,0,1-3.13.47,8.4,8.4,0,0,1-2.29-.3,5.25,5.25,0,0,1-1.86-.93,4.4,4.4,0,0,1-1.25-1.6,5.38,5.38,0,0,1-.45-2.29,4.92,4.92,0,0,1,.52-2.41A4.19,4.19,0,0,1,137,98.22a6.09,6.09,0,0,1,1.86-.85c.7-.18,1.4-.33,2.11-.44s1.41-.2,2.1-.27a14,14,0,0,0,1.83-.3,3.21,3.21,0,0,0,1.26-.58,1.3,1.3,0,0,0,.43-1.12,2.45,2.45,0,0,0-.25-1.21,1.85,1.85,0,0,0-.66-.7,2.65,2.65,0,0,0-1-.33,7.3,7.3,0,0,0-1.18-.08,3.63,3.63,0,0,0-2.19.59,2.63,2.63,0,0,0-.93,2Z"/><path class="cls-2" d="M159.1,89.64V92h.1a5.41,5.41,0,0,1,2.33-2.18,6.65,6.65,0,0,1,2.93-.68,8.12,8.12,0,0,1,3.11.51,4.75,4.75,0,0,1,1.91,1.43,5.62,5.62,0,0,1,1,2.23,13.82,13.82,0,0,1,.28,2.91v10.58H166V97.12a6,6,0,0,0-.67-3.17,2.57,2.57,0,0,0-2.36-1,3.26,3.26,0,0,0-2.79,1.15,6.32,6.32,0,0,0-.87,3.77v9h-4.72V89.64Z"/><path class="cls-2" d="M184.61,98.42a2.09,2.09,0,0,1-.75.42,8.39,8.39,0,0,1-1,.25c-.35.06-.71.12-1.08.16s-.76.1-1.14.17a9.34,9.34,0,0,0-1,.27,3.15,3.15,0,0,0-.9.44,2.16,2.16,0,0,0-.62.72,2.36,2.36,0,0,0-.23,1.1,2.27,2.27,0,0,0,.23,1.06,1.75,1.75,0,0,0,.64.68,2.4,2.4,0,0,0,.93.35,5.6,5.6,0,0,0,1.09.1,4.19,4.19,0,0,0,2.17-.46,3.19,3.19,0,0,0,1.13-1.12,3.72,3.72,0,0,0,.45-1.31,10.18,10.18,0,0,0,.08-1.07ZM173.7,94.93a5.49,5.49,0,0,1,.83-2.76,5.69,5.69,0,0,1,1.86-1.76,8.11,8.11,0,0,1,2.55-1,14.32,14.32,0,0,1,2.84-.28,19.59,19.59,0,0,1,2.63.18,8.17,8.17,0,0,1,2.43.71,4.8,4.8,0,0,1,1.79,1.48,4.14,4.14,0,0,1,.7,2.52V103a17.72,17.72,0,0,0,.13,2.23,4.12,4.12,0,0,0,.47,1.6h-4.79a7.62,7.62,0,0,1-.22-.82,7.9,7.9,0,0,1-.11-.85,6.15,6.15,0,0,1-2.66,1.63,10.69,10.69,0,0,1-3.13.47,8.4,8.4,0,0,1-2.29-.3,5.38,5.38,0,0,1-1.87-.93,4.37,4.37,0,0,1-1.24-1.6,5.38,5.38,0,0,1-.45-2.29,5,5,0,0,1,.51-2.41A4.38,4.38,0,0,1,175,98.22a6.26,6.26,0,0,1,1.87-.85,21.34,21.34,0,0,1,2.11-.44c.71-.12,1.41-.2,2.09-.27a13.44,13.44,0,0,0,1.83-.3,3.26,3.26,0,0,0,1.27-.58,1.3,1.3,0,0,0,.43-1.12,2.45,2.45,0,0,0-.25-1.21,1.88,1.88,0,0,0-.67-.7,2.54,2.54,0,0,0-1-.33,7.38,7.38,0,0,0-1.18-.08,3.68,3.68,0,0,0-2.2.59,2.7,2.7,0,0,0-.93,2Z"/><path class="cls-2" d="M196.48,102.56a2.71,2.71,0,0,0,.81.9,3.78,3.78,0,0,0,1.15.52,5.43,5.43,0,0,0,1.35.16,5.49,5.49,0,0,0,1-.11,3.5,3.5,0,0,0,1-.37,2.3,2.3,0,0,0,.75-.67,1.71,1.71,0,0,0,.3-1c0-.71-.47-1.24-1.41-1.6a28.61,28.61,0,0,0-3.95-1.06c-.68-.16-1.35-.34-2-.55a7,7,0,0,1-1.74-.83,4.12,4.12,0,0,1-1.23-1.3,3.68,3.68,0,0,1-.47-1.91,5.2,5.2,0,0,1,.65-2.73,4.75,4.75,0,0,1,1.71-1.68,7.37,7.37,0,0,1,2.4-.86,14.34,14.34,0,0,1,2.72-.25,14.15,14.15,0,0,1,2.71.26,7.28,7.28,0,0,1,2.35.9A5.37,5.37,0,0,1,206.32,92a5.72,5.72,0,0,1,.82,2.64h-4.49a2.07,2.07,0,0,0-1-1.84,4.79,4.79,0,0,0-2.2-.48,6.58,6.58,0,0,0-.86,0,2.72,2.72,0,0,0-.85.21,1.72,1.72,0,0,0-.65.48,1.41,1.41,0,0,0,.2,1.88,3.39,3.39,0,0,0,1.21.65,13.71,13.71,0,0,0,1.72.45c.64.13,1.29.28,2,.43s1.35.35,2,.57a6.47,6.47,0,0,1,1.74.88,4.48,4.48,0,0,1,1.24,1.36,4.05,4.05,0,0,1,.46,2,5.2,5.2,0,0,1-2.46,4.68,7.25,7.25,0,0,1-2.51,1,15.28,15.28,0,0,1-2.88.28,14.18,14.18,0,0,1-2.92-.3,7.6,7.6,0,0,1-2.55-1,5.74,5.74,0,0,1-1.83-1.84,6,6,0,0,1-.78-2.88h4.49a2.57,2.57,0,0,0,.32,1.31"/><rect class="cls-2" x="28.83" y="80.57" width="178.78" height="4.47"/><rect class="cls-2" x="28.77" y="110.96" width="178.78" height="4.47"/><path class="cls-2" d="M221.85,101.3a6.89,6.89,0,0,0,1.07,2.29,6.09,6.09,0,0,0,1.85,1.68,5.15,5.15,0,0,0,2.7.67,5.33,5.33,0,0,0,3.77-1.26,6.63,6.63,0,0,0,1.89-3.36h2.21a8.89,8.89,0,0,1-2.57,4.76,7.68,7.68,0,0,1-5.3,1.68,8.24,8.24,0,0,1-3.69-.76,6.79,6.79,0,0,1-2.54-2.06,8.92,8.92,0,0,1-1.45-3,14.12,14.12,0,0,1-.47-3.66,13.3,13.3,0,0,1,.47-3.5,9.4,9.4,0,0,1,1.45-3.06,7.26,7.26,0,0,1,2.54-2.17,7.73,7.73,0,0,1,3.69-.82,7.12,7.12,0,0,1,6.2,3.16,9.38,9.38,0,0,1,1.39,3.26,14.5,14.5,0,0,1,.35,3.72H221.52A9.82,9.82,0,0,0,221.85,101.3Zm10.92-6.74a6.56,6.56,0,0,0-1.14-2,5.48,5.48,0,0,0-1.79-1.44,5.08,5.08,0,0,0-2.37-.54,5.23,5.23,0,0,0-2.42.54,5.54,5.54,0,0,0-1.78,1.44,7,7,0,0,0-1.17,2.06,10,10,0,0,0-.58,2.4H233.2A8.15,8.15,0,0,0,232.77,94.56Z"/><path class="cls-2" d="M240.55,89.21v3.12h.07a5.31,5.31,0,0,1,2.23-2.65,6.64,6.64,0,0,1,3.54-1,8.78,8.78,0,0,1,3.16.49,4.89,4.89,0,0,1,2,1.38,5.14,5.14,0,0,1,1.08,2.18,12.41,12.41,0,0,1,.32,2.91v11.62h-2.21V96a10.38,10.38,0,0,0-.21-2.15,4.51,4.51,0,0,0-.73-1.73A3.55,3.55,0,0,0,248.43,91a5.17,5.17,0,0,0-2.22-.42,5.71,5.71,0,0,0-2.36.47,5.17,5.17,0,0,0-1.75,1.3,6,6,0,0,0-1.12,2,8.13,8.13,0,0,0-.43,2.46v10.54h-2.21V89.21Z"/><path class="cls-2" d="M264.33,89.21v1.86h-3.67v12.17a3.94,3.94,0,0,0,.29,1.7c.2.41.7.64,1.49.68a17.09,17.09,0,0,0,1.89-.1v1.85c-.33,0-.66,0-1,0l-1,0a3.26,3.26,0,0,1-3.92-4V91.07H255.3V89.21h3.15V83.79h2.21v5.42Z"/><path class="cls-2" d="M269.54,89.21v4.24h.07a7,7,0,0,1,2.6-3.4A6.86,6.86,0,0,1,276.43,89v2.2a6.65,6.65,0,0,0-2.73.4,6.3,6.3,0,0,0-2.12,1.35A6.2,6.2,0,0,0,270.2,95a6.93,6.93,0,0,0-.49,2.64v9.63h-2.2V89.21Z"/><path class="cls-2" d="M279.52,101.3a6.7,6.7,0,0,0,1.07,2.29,6.09,6.09,0,0,0,1.85,1.68,5.15,5.15,0,0,0,2.7.67,5.35,5.35,0,0,0,3.77-1.26,6.63,6.63,0,0,0,1.89-3.36H293a8.76,8.76,0,0,1-2.57,4.76,7.63,7.63,0,0,1-5.29,1.68,8.24,8.24,0,0,1-3.69-.76,6.79,6.79,0,0,1-2.54-2.06,8.92,8.92,0,0,1-1.45-3,13.7,13.7,0,0,1-.47-3.66,12.9,12.9,0,0,1,.47-3.5,9.4,9.4,0,0,1,1.45-3.06,7.26,7.26,0,0,1,2.54-2.17,7.73,7.73,0,0,1,3.69-.82,7.12,7.12,0,0,1,6.2,3.16,9.77,9.77,0,0,1,1.39,3.26,14.49,14.49,0,0,1,.34,3.72H279.19A9.82,9.82,0,0,0,279.52,101.3Zm10.91-6.74a6.34,6.34,0,0,0-1.13-2,5.58,5.58,0,0,0-1.79-1.44,5.11,5.11,0,0,0-2.37-.54,5.23,5.23,0,0,0-2.42.54,5.54,5.54,0,0,0-1.78,1.44,7,7,0,0,0-1.17,2.06,10,10,0,0,0-.58,2.4h11.68A7.85,7.85,0,0,0,290.43,94.56Z"/><path class="cls-2" d="M310.86,109.4a7,7,0,0,1-1.38,2.73,6.08,6.08,0,0,1-2.47,1.72,10.4,10.4,0,0,1-3.72.59,11.19,11.19,0,0,1-2.66-.31,7.71,7.71,0,0,1-2.33-1,5.77,5.77,0,0,1-1.71-1.7,5,5,0,0,1-.79-2.47H298a3.83,3.83,0,0,0,.68,1.7,4.13,4.13,0,0,0,1.22,1.1,5.25,5.25,0,0,0,1.59.61,8.25,8.25,0,0,0,1.79.2,5.31,5.31,0,0,0,4.44-1.75,8.07,8.07,0,0,0,1.36-5v-2.45H309a6.36,6.36,0,0,1-2.25,2.69,6,6,0,0,1-3.48,1,8.67,8.67,0,0,1-3.71-.72,6.94,6.94,0,0,1-2.54-2,8.07,8.07,0,0,1-1.45-3,14.1,14.1,0,0,1-.45-3.63,11.31,11.31,0,0,1,.54-3.51,8.86,8.86,0,0,1,1.57-2.91,7.45,7.45,0,0,1,2.56-2,8.16,8.16,0,0,1,3.48-.71,6.19,6.19,0,0,1,1.9.28,6,6,0,0,1,1.63.78,6.7,6.7,0,0,1,1.31,1.18,5.42,5.42,0,0,1,.89,1.4h.07V89.21h2.2V105.8A13.78,13.78,0,0,1,310.86,109.4Zm-5.06-4.81a5.63,5.63,0,0,0,1.82-1.61,7,7,0,0,0,1.1-2.29,9.49,9.49,0,0,0,.37-2.66,11.5,11.5,0,0,0-.31-2.66,7.67,7.67,0,0,0-1-2.42,5.35,5.35,0,0,0-1.8-1.74,5,5,0,0,0-2.67-.67,5.34,5.34,0,0,0-2.7.65,5.79,5.79,0,0,0-1.85,1.7,7.13,7.13,0,0,0-1.07,2.39,11.56,11.56,0,0,0-.33,2.75,10.27,10.27,0,0,0,.35,2.66,6.74,6.74,0,0,0,1.09,2.29,5.33,5.33,0,0,0,4.51,2.22A5,5,0,0,0,305.8,104.59Z"/><path class="cls-2" d="M316,92a5.15,5.15,0,0,1,1.52-1.89A6.36,6.36,0,0,1,319.72,89a10.7,10.7,0,0,1,2.87-.35,12.78,12.78,0,0,1,2.38.22,5.9,5.9,0,0,1,2.13.86,4.69,4.69,0,0,1,1.54,1.77,6.34,6.34,0,0,1,.59,3v9.58a1.16,1.16,0,0,0,1.3,1.33,1.59,1.59,0,0,0,.7-.14v1.86c-.26.05-.49.08-.68.1a5.35,5.35,0,0,1-.76,0,3.29,3.29,0,0,1-1.34-.23,1.82,1.82,0,0,1-.79-.65,2.39,2.39,0,0,1-.37-1,9.82,9.82,0,0,1-.08-1.27h-.07a16,16,0,0,1-1.21,1.56,6.06,6.06,0,0,1-1.36,1.13,6.15,6.15,0,0,1-1.72.7,10,10,0,0,1-4.65-.05,5.38,5.38,0,0,1-1.92-.94,4.61,4.61,0,0,1-1.3-1.65,5.52,5.52,0,0,1-.47-2.36,4.67,4.67,0,0,1,.84-3,5.36,5.36,0,0,1,2.22-1.63,12.75,12.75,0,0,1,3.11-.78l3.52-.44c.47,0,.87-.11,1.22-.18a2.26,2.26,0,0,0,.88-.36,1.8,1.8,0,0,0,.54-.72,3.05,3.05,0,0,0,.19-1.19,4,4,0,0,0-.37-1.84,2.9,2.9,0,0,0-1-1.13,4,4,0,0,0-1.5-.58,9.85,9.85,0,0,0-1.84-.16,5.54,5.54,0,0,0-3.43,1,3.93,3.93,0,0,0-1.4,3.2h-2.2A7.21,7.21,0,0,1,316,92Zm11,5.39a1.27,1.27,0,0,1-.8.56,6.91,6.91,0,0,1-1.05.24c-.93.17-1.9.31-2.89.44a15.74,15.74,0,0,0-2.71.58,5.4,5.4,0,0,0-2,1.1,2.65,2.65,0,0,0-.78,2.05,3.27,3.27,0,0,0,.33,1.49,3.56,3.56,0,0,0,.89,1.12,3.85,3.85,0,0,0,1.29.71,4.56,4.56,0,0,0,1.51.25,7.47,7.47,0,0,0,2.41-.39,5.8,5.8,0,0,0,2-1.12,5.34,5.34,0,0,0,1.87-4.16V97.4Z"/></svg>